<svg xmlns="http://www.w3.org/2000/svg" width="512" height="512" viewBox="0 0 40 40" fill="none">
  <!-- Background gradient -->
  <defs>
    <linearGradient id="bgGradient" x1="0%" y1="0%" x2="100%" y2="100%">
      <stop offset="0%" style="stop-color:#fbbf24;stop-opacity:1" />
      <stop offset="100%" style="stop-color:#f59e0b;stop-opacity:1" />
    </linearGradient>
  </defs>
  
  <!-- Background -->
  <rect width="40" height="40" fill="url(#bgGradient)" rx="8"/>
  
  <!-- Friendly chat bubble -->
  <path 
    d="M8 12C8 8.68629 10.6863 6 14 6H26C29.3137 6 32 8.68629 32 12V22C32 25.3137 29.3137 28 26 28H22L16 34V28H14C10.6863 28 8 25.3137 8 22V12Z" 
    stroke="white" 
    stroke-width="2.5" 
    stroke-linecap="round" 
    stroke-linejoin="round"
  />
  
  <!-- Heart inside -->
  <path 
    d="M20 22C20 22 24 18.5 24 16C24 14.3431 22.6569 13 21 13C20.2316 13 19.5308 13.3374 19 13.8906C18.4692 13.3374 17.7684 13 17 13C15.3431 13 14 14.3431 14 16C14 18.5 18 22 20 22Z" 
    stroke="white"
    stroke-width="2"
    stroke-linecap="round"
    stroke-linejoin="round"
    fill="white"
  />
</svg>
